<svg width="807" height="803" viewBox="0 0 807 803" fill="none" xmlns="http://www.w3.org/2000/svg">
<path d="M595.252 251.25C606.349 244.698 610.121 230.311 602.534 219.893C582.135 191.882 555.919 168.483 525.585 151.363C488.458 130.408 446.469 119.595 403.839 120.012C361.209 120.428 319.439 132.058 282.729 153.734C252.735 171.444 226.981 195.349 207.132 223.754C199.75 234.317 203.803 248.628 215.026 254.963L394.478 356.246C401.738 360.344 410.633 360.257 417.811 356.018L595.252 251.25Z" fill="#078691"/>
<path d="M407.481 139C407.481 139 411.119 155.829 407.481 165.53C393.991 201.502 366.712 224.134 348.576 249.615C340.895 260.406 320.608 307.691 377.804 319.202C387.246 321.102 399.411 314.591 399.411 314.591M438.507 262.655C443.903 271.198 453.383 289.073 443.163 298.84C433.179 308.38 421.15 307.8 407.481 294.13C403.734 290.683 399.626 287.41 392.193 286.037C385.208 284.746 380.237 285.296 372.858 286.936C368.811 287.835 367.892 290.231 374.326 291.84C378.993 293.006 394.313 292.471 395.911 290.673C400.578 285.423 375.502 287.989 374.326 288.923" stroke="white" stroke-width="9" stroke-linecap="round" stroke-linejoin="round"/>
<path d="M605.526 275.044C616.589 268.436 631.028 272.009 636.544 283.655C651.378 314.972 659.379 349.188 659.896 384.016C660.529 426.644 649.93 468.687 629.164 505.92C608.399 543.153 578.198 574.264 541.598 596.126C511.694 613.988 478.379 625.162 443.94 628.998C431.132 630.424 420.505 620.018 420.314 607.132L417.254 401.093C417.131 392.757 421.463 384.989 428.62 380.714L605.526 275.044Z" fill="#FF8533"/>
<path d="M474.575 373.518C477.113 376.182 479.708 380.88 479.458 386.641C479.205 392.45 476.11 398.406 469.169 403.722L468.485 404.234C464.464 407.184 461.675 409.524 459.903 411.501C458.112 413.5 457.851 414.589 457.836 415.062C457.824 415.438 457.935 416.378 459.576 418.186C461.073 419.835 463.469 421.786 467.027 424.192C479.605 423.408 499.049 423.706 517.597 427.119C527.045 428.858 536.42 431.433 544.591 435.18C552.734 438.914 559.986 443.951 564.793 450.781C581.749 474.878 589.614 497.854 598.452 522.567L602.213 531.701C602.835 533.212 602.663 534.933 601.754 536.29C600.845 537.647 599.319 538.462 597.686 538.462H567.766C565.595 538.462 563.691 537.033 563.075 534.968L563.019 534.766V534.765C563.019 534.764 563.019 534.762 563.018 534.76C563.017 534.755 563.015 534.747 563.012 534.736C563.007 534.715 562.998 534.682 562.987 534.639C562.965 534.552 562.932 534.42 562.887 534.248C562.799 533.904 562.667 533.395 562.496 532.739C562.153 531.428 561.652 529.533 561.02 527.209C559.756 522.558 557.97 516.199 555.887 509.357C551.645 495.431 546.39 480.285 541.929 473.027C538.02 466.668 531.109 462.104 517.245 457.799C505.079 454.021 488.391 450.677 465.216 446.238L456.897 444.65C456.847 444.971 456.814 445.295 456.8 445.622C456.582 450.652 460.59 459.641 480.628 471.707C482.644 472.921 483.503 475.391 482.701 477.582L482.618 477.794C479.974 484.106 477.007 494.334 476.699 504.26C476.387 514.322 478.804 522.742 485.309 527.412C492.511 532.583 503.141 534.393 514.229 534.192C525.176 533.992 535.718 531.85 541.969 529.966L542.212 529.9C544.726 529.279 547.313 530.733 548.069 533.24C548.849 535.829 547.383 538.561 544.794 539.341L543.433 539.737C536.376 541.728 525.625 543.778 514.408 543.983C502.585 544.198 489.369 542.381 479.598 535.366C469.131 527.851 466.562 515.237 466.912 503.956C467.207 494.45 469.574 484.939 472.077 477.92C454.157 466.412 446.574 455.464 447.017 445.199C447.335 437.85 451.687 432.381 456.595 428.697C454.947 427.378 453.513 426.076 452.326 424.768C449.786 421.969 447.925 418.658 448.049 414.751C448.17 410.94 450.153 407.71 452.611 404.967C455.089 402.202 458.557 399.373 462.695 396.338L463.21 395.952C468.404 391.981 469.576 388.496 469.675 386.216C469.787 383.627 468.573 381.415 467.484 380.272L471.03 376.895L474.575 373.518ZM515.825 436.75C498.761 433.61 480.737 433.24 468.755 433.899L466.085 436.435C489.669 440.946 507.237 444.438 520.149 448.447C534.756 452.983 544.485 458.484 550.272 467.9C555.508 476.417 561.086 492.822 565.253 506.504C567.373 513.466 569.186 519.924 570.469 524.64C570.888 526.183 571.251 527.541 571.55 528.67H590.375L589.35 526.182C589.321 526.111 589.294 526.039 589.268 525.967C580.351 501.034 572.88 479.289 556.785 456.417C553.323 451.497 547.736 447.395 540.509 444.081C533.308 440.78 524.777 438.398 515.825 436.75ZM467.653 373.35C469.611 371.485 472.71 371.56 474.575 373.518L467.484 380.272C465.62 378.314 465.696 375.214 467.653 373.35Z" fill="white"/>
<path d="M199.186 277.259C187.951 270.946 173.612 274.899 168.406 286.688C154.406 318.386 147.314 352.802 147.719 387.632C148.215 430.261 159.923 472.009 181.667 508.68C203.411 545.35 234.424 575.651 271.59 596.536C301.956 613.6 335.555 623.888 370.084 626.811C382.925 627.898 393.273 617.214 393.123 604.327L390.728 398.28C390.631 389.944 386.094 382.293 378.826 378.209L199.186 277.259Z" fill="#0756BE"/>
<path d="M330.304 399.051C327.472 384.307 310.438 355.263 264.963 357.036C219.487 358.809 200.615 390.799 196.863 406.572C190.461 422.424 187.051 463.949 224.628 503.244L240.888 517.854C240.888 517.854 282.575 549.619 288.508 559.322C294.44 569.025 318.865 582.025 334.422 569.506C350.377 556.667 353.896 533.261 341.261 514.379M252.666 502.397C221.117 477.247 187.795 429.646 235.63 388.73C260.09 367.808 331.17 381.202 301.617 438.641M315.825 459.831C318.054 476.337 289.515 489.016 322.179 506.873C329.149 510.683 323.262 521.816 316.848 526.501C307.005 533.69 293.655 519.664 292.023 507.585C290.629 497.269 286.261 488.195 270.946 475.978C250.225 459.449 239.086 414.314 299.4 397.343" stroke="white" stroke-width="9" stroke-linecap="round"/>
</svg>
